# xmcd
# 
# Track frame offsets:
#     150
#     17172
#     38077
#     51236
#     68801
#     86415
#     103707
#     117413
#     138697
#     147866
#     167200
#     184070
#     198419
#     216591
#     234889
#     254294
# 
# Disc length: 3650
# 
# Revision: 0
# Processed by: cddbd v1.5.2PL0 Copyright (c) Steve Scherf et al.
# Submitted via: fre:ac v1.0.17
# 
DISCID=eb0e4010
DTITLE=Piet Smit and Country Trail Band - Ga Naar Het Wonder
DYEAR=0
DGENRE=Country
TTITLE0=Als Jij met Tranen Zaait
TTITLE1=Jezus, Ik Verhoog U
TTITLE2=U Zal Er Altijd voor Mij Zijn
TTITLE3=Onder Uw Vleugels
TTITLE4=De Helden van De Bijbel
TTITLE5=Die Lig van God se Liefde
TTITLE6=Maranatha
TTITLE7=De Man in het Midden
TTITLE8=Ga naar het Wonder
TTITLE9=Beter of Bitter
TTITLE10=Meeer en Meer zoals Jezus
TTITLE11=Een Stralende Ster
TTITLE12=Overwinningslied
TTITLE13=Leven tot Uw Eeer
TTITLE14=Moet Ik Gaan met Lege Handen
TTITLE15=Bring Jou Kruis na Die Kruis
EXTD=
EXTT0=
EXTT1=
EXTT2=
EXTT3=
EXTT4=
EXTT5=
EXTT6=
EXTT7=
EXTT8=
EXTT9=
EXTT10=
EXTT11=
EXTT12=
EXTT13=
EXTT14=
EXTT15=
PLAYORDER=
